<svg width="66" height="66" viewBox="0 0 66 66" fill="none" xmlns="http://www.w3.org/2000/svg">
<path d="M29.1095 20.248H24.0141C23.2253 20.2602 21.4908 19.3555 20.4379 15.2161C18.7049 10.7892 16.8304 9.87366 11.2757 12.0711C6.90125 13.9468 6.76598 21.9886 11.2757 24.1792C15.6975 26.3272 25.1526 31.1898 25.1574 31.1089C25.1538 31.1053 25.1501 31.1017 25.1464 31.0982C25.1539 31.1037 25.1575 31.1073 25.1574 31.1089C27.9966 33.8777 29.2944 36.0268 30.2418 42.5773C30.5578 47.1093 30.2739 49.2654 29.5813 52.9556C28.6018 57.0684 27.7879 58.782 26.09 61.2898C26.384 53.4205 25.8501 49.6378 22.9762 44.6215C20.8858 42.2454 17.5034 40.2185 14.3895 38.8033C11.2757 37.3881 9.23575 37.0154 4.76493 33.2996C1.52812 28.9704 0.707418 24.936 1.08494 14.7444C1.79994 10.6582 2.6082 8.71654 4.48186 5.62396C6.9495 2.91453 8.48312 1.93016 11.5588 1.37826C14.3701 0.811208 15.8795 0.940765 18.5413 1.37826C21.8414 2.16583 23.4341 3.38851 25.8069 6.88194C27.1303 9.35203 27.6696 10.7618 28.2603 13.3291L29.1095 20.248Z" fill="black"/>
<path d="M29.1095 20.248H24.0141C23.2253 20.2602 21.4908 19.3555 20.4379 15.2161C18.7049 10.7892 16.8304 9.87366 11.2757 12.0711C6.90125 13.9468 6.76598 21.9886 11.2757 24.1792C15.7854 26.3698 25.5303 31.3841 25.1464 31.0982C27.9933 33.8721 29.2932 36.0183 30.2418 42.5773C30.5578 47.1093 30.2739 49.2654 29.5813 52.9556C28.6018 57.0684 27.7879 58.782 26.09 61.2898C26.384 53.4205 25.8501 49.6378 22.9762 44.6215C20.8858 42.2454 17.5034 40.2185 14.3895 38.8033C11.2757 37.3881 9.23575 37.0154 4.76493 33.2996C1.52812 28.9704 0.707418 24.936 1.08494 14.7444C1.79994 10.6582 2.6082 8.71654 4.48186 5.62396C6.9495 2.91453 8.48312 1.93016 11.5588 1.37826C14.3701 0.811208 15.8795 0.940765 18.5413 1.37826C21.8414 2.16583 23.4341 3.38851 25.8069 6.88194C27.1303 9.35203 27.6696 10.7618 28.2603 13.3291L29.1095 20.248Z" stroke="black"/>
<path d="M48.9591 28.5184L63.4903 3.83044H54.0544L39.995 28.5184V3.83044H34.7109C32.9107 5.41425 32.5173 6.49139 32.2576 8.54789V54.6216L38.8627 43.1425C42.2349 37.2098 43.8127 37.9095 46.317 43.1425L55.8472 65H65L48.9591 28.5184Z" fill="black" stroke="black"/>
</svg>
